<svg width="32" height="32" viewBox="0 0 32 32" fill="none" xmlns="http://www.w3.org/2000/svg">
<path d="M31 27.3919C31 29.3845 29.3848 30.9997 27.3921 30.9997H4.60782C2.61522 30.9997 1 29.3845 1 27.3919V4.60782C1 2.61522 2.61522 1 4.60782 1H27.3921C29.3848 1 31 2.61522 31 4.60782V27.3919Z" fill="white"/>
<path d="M27.3921 30.9997C28.978 30.9997 30.3249 29.9766 30.8086 28.5544C30.7188 28.2313 30.5903 27.8202 30.4114 27.3459C29.9564 26.1396 29.1772 24.5301 27.8825 22.9214C25.7925 20.3245 22.3361 17.6996 16.6522 16.8001V26.8865H15.7826V16.6783C14.701 16.5461 13.5434 16.4745 12.3043 16.4745H11.8696V15.3778H12.3043C13.5447 15.3778 14.7022 15.3062 15.7826 15.1737V5.36478H16.6522V15.0514C22.3176 14.1513 25.7287 11.528 27.7749 8.93439C29.0433 7.32668 29.7966 5.71818 30.2323 4.51231C30.4447 3.92449 30.5812 3.4337 30.6649 3.08733C30.0912 1.85456 28.8415 1 27.3921 1H4.60782C2.61522 1 1 2.61522 1 4.60782V27.3919C1 29.3845 2.61522 30.9997 4.60782 30.9997H27.3921Z" fill="#FDA403"/>
<path d="M31 4.96155V26.3339C31 26.3339 27.873 18.1033 16.6902 15.9228C16.6902 15.9228 26.3321 14.862 31 4.96155V4.96155Z" fill="#999999"/>
</svg>
